<svg xmlns="http://www.w3.org/2000/svg" viewBox="0 0 41.52 38.57"><defs><style>.cls-1{fill:none;stroke:#000;stroke-miterlimit:10;}</style></defs><title>unoRecurso 1</title><g id="Capa_2" data-name="Capa 2"><g id="Capa_2-2" data-name="Capa 2"><path class="cls-1" d="M.5,13v8a12.91,12.91,0,0,0,.44,4.11,25.43,25.43,0,0,0,1.47,3.68A12.29,12.29,0,0,0,6.72,34c1.94,1.18,4.28,1.28,6.46,1.63,1.43.22,2.82.63,4.23,1a58.22,58.22,0,0,0,8.22,1.12,46.55,46.55,0,0,0,7.27.3,6.42,6.42,0,0,0,2.53-.5c2.22-1.15,5.81-2.91,5.58-10S37.57,2.66,26.87,1A61.6,61.6,0,0,0,19.68.63L15.37.56c-1.43,0-2.93-.25-4.28.37-.86.4-1.7.82-2.51,1.29a20.31,20.31,0,0,0-6.1,5A9.2,9.2,0,0,0,.5,13Z"/></g></g></svg>