<svg xmlns="http://www.w3.org/2000/svg" viewBox="0 0 44.12 44.35"><defs><style>.cls-1,.cls-2{fill:none;stroke:#000;}.cls-1{stroke-miterlimit:10;}.cls-2{stroke-linecap:round;stroke-linejoin:round;}</style></defs><title>tresRecurso 6</title><g id="Capa_2" data-name="Capa 2"><g id="Capa_2-2" data-name="Capa 2"><path class="cls-1" d="M1.87,10.86a7.07,7.07,0,0,1,1.69-1c.86-.4,1.72-.78,2.59-1.15,2.52-1.06,5.1-2,7.71-2.81,6.56-2,13.6-3.37,20.48-2.56A47.21,47.21,0,0,1,40,4.38,4.16,4.16,0,0,1,41.31,5,5.45,5.45,0,0,1,43.45,8.7C44,12.12,43,15.81,41.93,19c-5,15.25-4.3,23.33-12.55,24.6A19.32,19.32,0,0,1,16.49,41.1C10.78,37.66,7,31.76,4.32,25.8c-1.2-2.69-2.8-5.14-3.45-8a11.62,11.62,0,0,1-.26-4.43A3.79,3.79,0,0,1,1.87,10.86Z"/><path class="cls-2" d="M8.15,15.21a31.28,31.28,0,0,1,27.13-4.74"/><path class="cls-1" d="M2.65,10.31S19.48-7,40,4.38"/></g></g></svg>