<svg xmlns="http://www.w3.org/2000/svg" viewBox="0 0 44.12 44.35"><defs><style>.cls-1,.cls-2{fill:none;stroke:#000;}.cls-1{stroke-miterlimit:10;}.cls-2{stroke-linecap:round;stroke-linejoin:round;}</style></defs><title>cuatroRecurso 7</title><g id="Capa_2" data-name="Capa 2"><g id="Capa_2-2" data-name="Capa 2"><path class="cls-1" d="M42.25,10.86a7.07,7.07,0,0,0-1.69-1c-.85-.4-1.72-.78-2.59-1.15-2.52-1.06-5.1-2-7.71-2.81-6.56-2-13.6-3.37-20.48-2.56A47.21,47.21,0,0,0,4.1,4.38,4.16,4.16,0,0,0,2.81,5,5.45,5.45,0,0,0,.67,8.7C.08,12.12,1.12,15.81,2.19,19c5,15.25,4.3,23.33,12.55,24.6A19.32,19.32,0,0,0,27.63,41.1c5.71-3.44,9.51-9.34,12.17-15.3,1.2-2.69,2.8-5.14,3.45-8a11.62,11.62,0,0,0,.26-4.43A3.79,3.79,0,0,0,42.25,10.86Z"/><path class="cls-2" d="M36,15.21A31.28,31.28,0,0,0,8.84,10.47"/><path class="cls-1" d="M41.47,10.31S24.64-7,4.1,4.38"/></g></g></svg>