<svg xmlns="http://www.w3.org/2000/svg" viewBox="0 0 41.52 38.57"><defs><style>.cls-1{fill:none;stroke:#000;stroke-miterlimit:10;}</style></defs><title>seisRecurso 9</title><g id="Capa_2" data-name="Capa 2"><g id="Capa_2-2" data-name="Capa 2"><path class="cls-1" d="M41,13v8a12.91,12.91,0,0,1-.44,4.11,25.43,25.43,0,0,1-1.47,3.68A12.29,12.29,0,0,1,34.8,34c-1.94,1.18-4.28,1.28-6.46,1.63-1.43.22-2.82.63-4.23,1a58.22,58.22,0,0,1-8.22,1.12,46.55,46.55,0,0,1-7.27.3,6.42,6.42,0,0,1-2.53-.5C3.87,36.37.28,34.61.51,27.5S4,2.66,14.65,1A61.6,61.6,0,0,1,21.84.63L26.15.56c1.43,0,2.93-.25,4.28.37.86.4,1.7.82,2.51,1.29a20.31,20.31,0,0,1,6.1,5A9.2,9.2,0,0,1,41,13Z"/></g></g></svg>