

<svg xmlns="http://www.w3.org/2000/svg" >
    <defs>
        <svg id="whatsapp" xmlns="http://www.w3.org/2000/svg"  viewBox="0 0 50 50" width="50px" height="50px">
            <path d="M 25 2 C 12.309534 2 2 12.309534 2 25 C 2 29.079097 3.1186875 32.88588 4.984375 36.208984 L 2.0371094 46.730469 A 1.0001 1.0001 0 0 0 3.2402344 47.970703 L 14.210938 45.251953 C 17.434629 46.972929 21.092591 48 25 48 C 37.690466 48 48 37.690466 48 25 C 48 12.309534 37.690466 2 25 2 z M 25 4 C 36.609534 4 46 13.390466 46 25 C 46 36.609534 36.609534 46 25 46 C 21.278025 46 17.792121 45.029635 14.761719 43.333984 A 1.0001 1.0001 0 0 0 14.033203 43.236328 L 4.4257812 45.617188 L 7.0019531 36.425781 A 1.0001 1.0001 0 0 0 6.9023438 35.646484 C 5.0606869 32.523592 4 28.890107 4 25 C 4 13.390466 13.390466 4 25 4 z M 16.642578 13 C 16.001539 13 15.086045 13.23849 14.333984 14.048828 C 13.882268 14.535548 12 16.369511 12 19.59375 C 12 22.955271 14.331391 25.855848 14.613281 26.228516 L 14.615234 26.228516 L 14.615234 26.230469 C 14.588494 26.195329 14.973031 26.752191 15.486328 27.419922 C 15.999626 28.087653 16.717405 28.96464 17.619141 29.914062 C 19.422612 31.812909 21.958282 34.007419 25.105469 35.349609 C 26.554789 35.966779 27.698179 36.339417 28.564453 36.611328 C 30.169845 37.115426 31.632073 37.038799 32.730469 36.876953 C 33.55263 36.755876 34.456878 36.361114 35.351562 35.794922 C 36.246248 35.22873 37.12309 34.524722 37.509766 33.455078 C 37.786772 32.688244 37.927591 31.979598 37.978516 31.396484 C 38.003976 31.104927 38.007211 30.847602 37.988281 30.609375 C 37.969311 30.371148 37.989581 30.188664 37.767578 29.824219 C 37.302009 29.059804 36.774753 29.039853 36.224609 28.767578 C 35.918939 28.616297 35.048661 28.191329 34.175781 27.775391 C 33.303883 27.35992 32.54892 26.991953 32.083984 26.826172 C 31.790239 26.720488 31.431556 26.568352 30.914062 26.626953 C 30.396569 26.685553 29.88546 27.058933 29.587891 27.5 C 29.305837 27.918069 28.170387 29.258349 27.824219 29.652344 C 27.819619 29.649544 27.849659 29.663383 27.712891 29.595703 C 27.284761 29.383815 26.761157 29.203652 25.986328 28.794922 C 25.2115 28.386192 24.242255 27.782635 23.181641 26.847656 L 23.181641 26.845703 C 21.603029 25.455949 20.497272 23.711106 20.148438 23.125 C 20.171937 23.09704 20.145643 23.130901 20.195312 23.082031 L 20.197266 23.080078 C 20.553781 22.728924 20.869739 22.309521 21.136719 22.001953 C 21.515257 21.565866 21.68231 21.181437 21.863281 20.822266 C 22.223954 20.10644 22.02313 19.318742 21.814453 18.904297 L 21.814453 18.902344 C 21.828863 18.931014 21.701572 18.650157 21.564453 18.326172 C 21.426943 18.001263 21.251663 17.580039 21.064453 17.130859 C 20.690033 16.232501 20.272027 15.224912 20.023438 14.634766 L 20.023438 14.632812 C 19.730591 13.937684 19.334395 13.436908 18.816406 13.195312 C 18.298417 12.953717 17.840778 13.022402 17.822266 13.021484 L 17.820312 13.021484 C 17.450668 13.004432 17.045038 13 16.642578 13 z M 16.642578 15 C 17.028118 15 17.408214 15.004701 17.726562 15.019531 C 18.054056 15.035851 18.033687 15.037192 17.970703 15.007812 C 17.906713 14.977972 17.993533 14.968282 18.179688 15.410156 C 18.423098 15.98801 18.84317 16.999249 19.21875 17.900391 C 19.40654 18.350961 19.582292 18.773816 19.722656 19.105469 C 19.863021 19.437122 19.939077 19.622295 20.027344 19.798828 L 20.027344 19.800781 L 20.029297 19.802734 C 20.115837 19.973483 20.108185 19.864164 20.078125 19.923828 C 19.867096 20.342656 19.838461 20.445493 19.625 20.691406 C 19.29998 21.065838 18.968453 21.483404 18.792969 21.65625 C 18.639439 21.80707 18.36242 22.042032 18.189453 22.501953 C 18.016221 22.962578 18.097073 23.59457 18.375 24.066406 C 18.745032 24.6946 19.964406 26.679307 21.859375 28.347656 C 23.05276 29.399678 24.164563 30.095933 25.052734 30.564453 C 25.940906 31.032973 26.664301 31.306607 26.826172 31.386719 C 27.210549 31.576953 27.630655 31.72467 28.119141 31.666016 C 28.607627 31.607366 29.02878 31.310979 29.296875 31.007812 L 29.298828 31.005859 C 29.655629 30.601347 30.715848 29.390728 31.224609 28.644531 C 31.246169 28.652131 31.239109 28.646231 31.408203 28.707031 L 31.408203 28.708984 L 31.410156 28.708984 C 31.487356 28.736474 32.454286 29.169267 33.316406 29.580078 C 34.178526 29.990889 35.053561 30.417875 35.337891 30.558594 C 35.748225 30.761674 35.942113 30.893881 35.992188 30.894531 C 35.995572 30.982516 35.998992 31.07786 35.986328 31.222656 C 35.951258 31.624292 35.8439 32.180225 35.628906 32.775391 C 35.523582 33.066746 34.975018 33.667661 34.283203 34.105469 C 33.591388 34.543277 32.749338 34.852514 32.4375 34.898438 C 31.499896 35.036591 30.386672 35.087027 29.164062 34.703125 C 28.316336 34.437036 27.259305 34.092596 25.890625 33.509766 C 23.114812 32.325956 20.755591 30.311513 19.070312 28.537109 C 18.227674 27.649908 17.552562 26.824019 17.072266 26.199219 C 16.592866 25.575584 16.383528 25.251054 16.208984 25.021484 L 16.207031 25.019531 C 15.897202 24.609805 14 21.970851 14 19.59375 C 14 17.077989 15.168497 16.091436 15.800781 15.410156 C 16.132721 15.052495 16.495617 15 16.642578 15 z"/>
        </svg>
        <svg id="pago" xmlns="http://www.w3.org/2000/svg"  viewBox="0 0 50 50" width="50px" height="50px">
            <path d="M 25 3 C 18.382813 3 13 8.382813 13 15 C 13 18.585938 14.589844 21.800781 17.089844 24 L 14.5 24 C 13.671875 24 13 24.671875 13 25.5 C 13 26.328125 13.671875 27 14.5 27 L 35.5 27 C 36.328125 27 37 26.328125 37 25.5 C 37 24.671875 36.328125 24 35.5 24 L 32.910156 24 C 35.410156 21.800781 37 18.585938 37 15 C 37 8.382813 31.617188 3 25 3 Z M 25 5 C 30.535156 5 35 9.464844 35 15 C 35 20.535156 30.535156 25 25 25 C 19.464844 25 15 20.535156 15 15 C 15 9.464844 19.464844 5 25 5 Z M 24 7 L 24 9.109375 C 23.726563 9.164063 23.433594 9.234375 23.125 9.359375 C 22.148438 9.757813 21 10.824219 21 12.496094 C 21 13.648438 21.628906 14.59375 22.390625 15.09375 C 23.148438 15.59375 23.980469 15.796875 24.730469 16.007813 C 25.476563 16.21875 26.132813 16.433594 26.5 16.683594 C 26.863281 16.929688 27 17.078125 27 17.6875 L 27 17.714844 C 27 17.714844 27.003906 17.992188 26.804688 18.308594 C 26.605469 18.621094 26.28125 19 25 19 C 23.796875 19 23.496094 18.5625 23.25 18.0625 C 23.003906 17.558594 23 17.019531 23 17.019531 L 21 16.980469 C 21 16.980469 20.964844 17.941406 21.453125 18.9375 C 21.847656 19.742188 22.710938 20.582031 24 20.878906 L 24 23 L 26 23 L 26 20.90625 C 27.226563 20.675781 28.066406 20.050781 28.492188 19.378906 C 29.023438 18.539063 28.996094 17.683594 28.996094 17.671875 C 28.988281 16.507813 28.382813 15.550781 27.625 15.03125 C 26.867188 14.511719 26.023438 14.296875 25.269531 14.082031 C 24.519531 13.871094 23.851563 13.660156 23.484375 13.421875 C 23.121094 13.183594 23 13.066406 23 12.496094 C 23 11.605469 23.351563 11.425781 23.875 11.214844 C 24.390625 11.007813 24.933594 11.003906 24.957031 11.003906 C 24.976563 11.003906 25.507813 11.050781 26.03125 11.328125 C 26.566406 11.613281 27 11.949219 27 13 L 29 13 C 29 11.238281 27.933594 10.074219 26.96875 9.5625 C 26.625 9.378906 26.296875 9.269531 26 9.1875 L 26 7 Z M 5 11 C 3.355469 11 2 12.355469 2 14 L 2 35.832031 C 1.980469 35.941406 1.980469 36.050781 2 36.15625 L 2 38 C 2 39.644531 3.355469 41 5 41 L 18.820313 41 L 18.152344 45 L 16 45 C 15.640625 44.996094 15.304688 45.183594 15.121094 45.496094 C 14.941406 45.808594 14.941406 46.191406 15.121094 46.503906 C 15.304688 46.816406 15.640625 47.003906 16 47 L 34 47 C 34.359375 47.003906 34.695313 46.816406 34.878906 46.503906 C 35.058594 46.191406 35.058594 45.808594 34.878906 45.496094 C 34.695313 45.183594 34.359375 44.996094 34 45 L 31.847656 45 L 31.179688 41 L 45 41 C 46.644531 41 48 39.644531 48 38 L 48 36.167969 C 48.019531 36.058594 48.019531 35.949219 48 35.84375 L 48 14 C 48 12.355469 46.644531 11 45 11 L 38.410156 11 C 38.605469 11.648438 38.742188 12.316406 38.84375 13 L 45 13 C 45.566406 13 46 13.433594 46 14 L 46 35 L 4 35 L 4 14 C 4 13.433594 4.433594 13 5 13 L 11.15625 13 C 11.257813 12.316406 11.394531 11.648438 11.589844 11 Z M 4 37 L 46 37 L 46 38 C 46 38.566406 45.566406 39 45 39 L 5 39 C 4.433594 39 4 38.566406 4 38 Z M 20.847656 41 L 29.152344 41 L 29.820313 45 L 20.179688 45 Z"/>
        </svg>
        <svg id="microscope" xmlns="http://www.w3.org/2000/svg" width="24" height="24" viewBox="0 0 24 24" fill="none" stroke="currentColor" stroke-width="2" stroke-linecap="round" stroke-linejoin="round" class="lucide lucide-microscope-icon lucide-microscope">
            <path d="M6 18h8"/><path d="M3 22h18"/><path d="M14 22a7 7 0 1 0 0-14h-1"/><path d="M9 14h2"/><path d="M9 12a2 2 0 0 1-2-2V6h6v4a2 2 0 0 1-2 2Z"/><path d="M12 6V3a1 1 0 0 0-1-1H9a1 1 0 0 0-1 1v3"/>
        </svg>
        <svg id="stethoscope" xmlns="http://www.w3.org/2000/svg" width="24" height="24" viewBox="0 0 24 24" fill="none" stroke="currentColor" stroke-width="2" stroke-linecap="round" stroke-linejoin="round" class="lucide lucide-stethoscope-icon lucide-stethoscope"><path d="M11 2v2"/><path d="M5 2v2"/><path d="M5 3H4a2 2 0 0 0-2 2v4a6 6 0 0 0 12 0V5a2 2 0 0 0-2-2h-1"/><path d="M8 15a6 6 0 0 0 12 0v-3"/><circle cx="20" cy="10" r="2"/></svg>
    </defs>
</svg>