

<svg xmlns="http://www.w3.org/2000/svg" >
    <defs>
        <svg id="whatsapp" xmlns="http://www.w3.org/2000/svg"  viewBox="0 0 50 50" width="50px" height="50px">    <path d="M25,2C12.318,2,2,12.318,2,25c0,3.96,1.023,7.854,2.963,11.29L2.037,46.73c-0.096,0.343-0.003,0.711,0.245,0.966 C2.473,47.893,2.733,48,3,48c0.08,0,0.161-0.01,0.24-0.029l10.896-2.699C17.463,47.058,21.21,48,25,48c12.682,0,23-10.318,23-23 S37.682,2,25,2z M36.57,33.116c-0.492,1.362-2.852,2.605-3.986,2.772c-1.018,0.149-2.306,0.213-3.72-0.231 c-0.857-0.27-1.957-0.628-3.366-1.229c-5.923-2.526-9.791-8.415-10.087-8.804C15.116,25.235,13,22.463,13,19.594 s1.525-4.28,2.067-4.864c0.542-0.584,1.181-0.73,1.575-0.73s0.787,0.005,1.132,0.021c0.363,0.018,0.85-0.137,1.329,1.001 c0.492,1.168,1.673,4.037,1.819,4.33c0.148,0.292,0.246,0.633,0.05,1.022c-0.196,0.389-0.294,0.632-0.59,0.973 s-0.62,0.76-0.886,1.022c-0.296,0.291-0.603,0.606-0.259,1.19c0.344,0.584,1.529,2.493,3.285,4.039 c2.255,1.986,4.158,2.602,4.748,2.894c0.59,0.292,0.935,0.243,1.279-0.146c0.344-0.39,1.476-1.703,1.869-2.286 s0.787-0.487,1.329-0.292c0.542,0.194,3.445,1.604,4.035,1.896c0.59,0.292,0.984,0.438,1.132,0.681 C37.062,30.587,37.062,31.755,36.57,33.116z"/></svg>
        <svg id="pago" xmlns="http://www.w3.org/2000/svg"  viewBox="0 0 50 50" width="50px" height="50px"><path d="M 25 3 C 18.382813 3 13 8.382813 13 15 C 13 18.585938 14.589844 21.800781 17.089844 24 L 14.5 24 C 13.671875 24 13 24.671875 13 25.5 C 13 26.328125 13.671875 27 14.5 27 L 35.5 27 C 36.328125 27 37 26.328125 37 25.5 C 37 24.671875 36.328125 24 35.5 24 L 32.910156 24 C 35.410156 21.800781 37 18.585938 37 15 C 37 8.382813 31.617188 3 25 3 Z M 24 7 L 26 7 L 26 9.171875 C 27.371094 9.5625 29 10.640625 29 13 L 27 13 C 27 11.179688 25.148438 11.011719 24.9375 11 L 24.933594 11 C 24.675781 11 23.800781 11.09375 23.339844 11.550781 C 23.191406 11.695313 23 11.949219 23 12.496094 C 23 13.320313 23.503906 13.585938 25.230469 14.074219 C 26.820313 14.519531 29 15.132813 29 17.6875 C 29.003906 17.789063 29.007813 18.949219 28.089844 19.890625 C 27.5625 20.429688 26.859375 20.773438 26 20.917969 L 26 23 L 24 23 L 24 20.890625 C 23.261719 20.738281 22.628906 20.414063 22.128906 19.90625 C 20.996094 18.75 20.996094 17.15625 21 16.980469 L 22 17 L 23 17.015625 C 23 17.023438 23.003906 17.949219 23.566406 18.515625 C 23.894531 18.839844 24.359375 19 25 19 C 25.53125 19 26.25 18.914063 26.65625 18.496094 C 26.984375 18.15625 27 17.71875 27 17.714844 C 27 16.785156 26.480469 16.503906 24.6875 16 C 23.132813 15.558594 21 14.960938 21 12.496094 C 21 11.546875 21.324219 10.722656 21.941406 10.117188 C 22.570313 9.503906 23.367188 9.234375 24 9.109375 Z M 5 11 C 3.347656 11 2 12.347656 2 14 L 2 37 C 2 38.652344 3.347656 40 5 40 L 45 40 C 46.652344 40 48 38.652344 48 37 L 48 14 C 48 12.347656 46.652344 11 45 11 L 38.410156 11 C 38.605469 11.648438 38.742188 12.316406 38.84375 13 L 45 13 C 45.550781 13 46 13.449219 46 14 L 46 34 L 4 34 L 4 14 C 4 13.449219 4.449219 13 5 13 L 11.15625 13 C 11.257813 12.316406 11.394531 11.648438 11.589844 11 Z M 18.652344 42 L 18.152344 45 L 16 45 C 15.640625 44.996094 15.304688 45.183594 15.121094 45.496094 C 14.941406 45.808594 14.941406 46.191406 15.121094 46.503906 C 15.304688 46.816406 15.640625 47.003906 16 47 L 34 47 C 34.359375 47.003906 34.695313 46.816406 34.878906 46.503906 C 35.058594 46.191406 35.058594 45.808594 34.878906 45.496094 C 34.695313 45.183594 34.359375 44.996094 34 45 L 31.847656 45 L 31.347656 42 Z"/></svg>
    </defs>
</svg>